<?xml version="1.0" standalone="no"?>
<!DOCTYPE svg PUBLIC "-//W3C//DTD SVG 20010904//EN"
 "http://www.w3.org/TR/2001/REC-SVG-20010904/DTD/svg10.dtd">
<svg version="1.0" xmlns="http://www.w3.org/2000/svg"
 width="800" height="800" viewBox="0 0 736.000000 736.000000"
 preserveAspectRatio="xMidYMid meet">

<g transform="translate(0.000000,736.000000) scale(0.100000,-0.100000)"
fill="#000000" stroke="none">
<path d="M2345 4836 c-60 -28 -87 -56 -114 -116 -53 -116 5 -266 121 -314 51
-22 143 -20 193 3 152 71 184 280 60 390 -21 18 -53 40 -71 47 -52 22 -131 17
-189 -10z"/>
<path d="M2922 4623 l3 -158 1113 -3 1112 -2 0 160 0 160 -1115 0 -1116 0 3
-157z"/>
<path d="M2395 3901 c-151 -37 -228 -201 -160 -338 59 -117 192 -164 310 -109
106 49 157 156 130 276 -17 79 -91 150 -175 169 -51 12 -63 12 -105 2z"/>
<path d="M2927 3823 c-4 -3 -7 -75 -7 -160 l0 -153 1115 0 1115 0 0 160 0 160
-1108 0 c-610 0 -1112 -3 -1115 -7z"/>
<path d="M2360 2904 c-131 -57 -165 -237 -64 -338 106 -106 277 -77 340 58 38
81 28 158 -28 222 -62 70 -164 94 -248 58z"/>
<path d="M2922 2713 l3 -158 1113 -3 1112 -2 0 160 0 160 -1115 0 -1116 0 3
-157z"/>
</g>
</svg>
