<?xml version="1.0" standalone="no"?>
<!DOCTYPE svg PUBLIC "-//W3C//DTD SVG 20010904//EN"
 "http://www.w3.org/TR/2001/REC-SVG-20010904/DTD/svg10.dtd">
<svg version="1.0" xmlns="http://www.w3.org/2000/svg"
 width="512.000000pt" height="512.000000pt" viewBox="0 0 512.000000 512.000000"
 preserveAspectRatio="xMidYMid meet">

<g transform="translate(0.000000,512.000000) scale(0.100000,-0.100000)"
fill="#d51243" stroke="none">
<path d="M1280 5114 c-132 -24 -244 -76 -346 -163 -208 -175 -336 -424 -373
-726 -14 -114 -14 -356 -1 -483 14 -123 49 -321 61 -345 15 -27 57 -40 90 -27
44 19 52 53 34 145 -58 308 -60 624 -4 845 61 247 212 452 409 554 141 73 271
73 418 -1 65 -32 177 -133 235 -212 48 -66 120 -208 154 -305 53 -156 65 -244
70 -511 6 -313 -11 -558 -73 -1062 l-7 -52 -436 -107 c-240 -59 -442 -107
-449 -108 -17 -1 -98 194 -168 404 -60 181 -83 217 -133 205 -40 -10 -61 -35
-61 -71 0 -63 193 -585 242 -656 40 -58 44 -58 571 72 265 65 494 123 509 129
59 22 69 58 107 386 40 339 53 588 48 872 -4 222 -8 284 -26 363 -109 498
-414 840 -761 855 -47 2 -96 2 -110 -1z"/>
<path d="M3641 4155 c-319 -72 -578 -401 -673 -854 -51 -243 -26 -932 53
-1463 13 -87 37 -134 77 -149 15 -6 243 -64 507 -130 529 -130 531 -131 574
-70 23 32 131 297 181 443 29 86 31 100 20 127 -22 53 -103 59 -128 8 -6 -12
-40 -101 -76 -197 -89 -241 -104 -272 -124 -266 -9 2 -212 53 -449 111 -287
71 -433 111 -433 120 0 7 -11 105 -25 217 -42 352 -57 617 -52 883 3 167 10
264 21 320 84 409 304 700 571 755 153 32 320 -34 464 -181 147 -151 229 -332
262 -577 25 -185 -1 -552 -56 -783 -22 -95 -20 -124 11 -148 33 -26 65 -27 93
-3 16 13 28 46 46 134 44 210 56 309 62 523 8 317 -23 492 -126 700 -111 224
-308 406 -504 466 -85 26 -216 32 -296 14z"/>
<path d="M1625 2200 c-242 -66 -450 -121 -462 -124 -37 -10 -82 -55 -88 -89
-8 -39 142 -611 181 -694 78 -163 218 -277 402 -324 389 -99 772 240 721 640
-8 70 -150 616 -169 651 -19 36 -61 60 -104 59 -22 0 -239 -54 -481 -119z
m530 -297 c82 -303 90 -379 56 -492 -51 -167 -202 -288 -384 -307 -166 -17
-350 86 -425 238 -26 55 -178 585 -169 594 6 6 812 222 833 223 18 1 27 -24
89 -256z"/>
<path d="M2939 1342 c-29 -26 -38 -52 -111 -318 -70 -255 -80 -302 -85 -399
-6 -127 7 -196 60 -303 41 -86 158 -205 244 -250 216 -113 465 -88 660 67 62
49 135 149 167 228 44 107 178 633 171 669 -6 33 -48 78 -82 88 -160 47 -932
246 -957 246 -25 0 -45 -9 -67 -28z m533 -243 c227 -61 414 -112 416 -114 8
-8 -142 -538 -168 -592 -75 -152 -260 -256 -427 -239 -181 19 -328 135 -382
304 -37 113 -29 188 54 495 42 155 74 257 82 257 6 0 198 -50 425 -111z"/>
</g>
</svg>
